<?xml version="1.0" standalone="no"?>
<!DOCTYPE svg PUBLIC "-//W3C//DTD SVG 20010904//EN"
 "http://www.w3.org/TR/2001/REC-SVG-20010904/DTD/svg10.dtd">
<svg version="1.0" xmlns="http://www.w3.org/2000/svg"
 width="2048.000000pt" height="2048.000000pt" viewBox="0 0 2048.000000 2048.000000"
 preserveAspectRatio="xMidYMid meet">

<g transform="translate(0.000000,2048.000000) scale(0.100000,-0.100000)"
fill="#000000" stroke="none">
<path d="M9795 16766 c-36 -16 -113 -81 -461 -391 -148 -131 -305 -271 -349
-310 -116 -102 -377 -336 -475 -425 -47 -42 -143 -128 -215 -191 -71 -63 -179
-159 -240 -214 -60 -55 -146 -132 -190 -170 -44 -38 -125 -111 -180 -161 -55
-50 -141 -127 -191 -170 -50 -43 -149 -130 -220 -193 -71 -62 -147 -129 -169
-149 -22 -19 -101 -90 -176 -156 -74 -67 -203 -179 -285 -251 -82 -71 -167
-148 -190 -170 l-41 -40 -7 -200 c-3 -110 -6 -1524 -6 -3143 0 -3161 -2 -2994
49 -3021 14 -8 626 -10 2134 -9 l2114 3 38 27 c41 29 278 230 429 363 147 130
239 209 277 240 20 17 72 62 116 100 43 39 123 108 178 155 101 87 222 193
570 500 110 96 215 189 236 205 20 17 93 80 161 140 308 270 496 435 568 495
80 67 288 249 465 405 56 50 150 133 209 185 59 52 114 106 122 122 12 23 14
478 14 3205 -1 2482 -3 3181 -13 3194 -7 9 -22 21 -34 27 -34 19 -4197 16
-4238 -2z m3157 -1373 c4 -129 4 -4408 -1 -4690 l-1 -83 -59 -47 c-32 -27
-120 -102 -194 -168 -124 -110 -227 -200 -487 -425 -173 -150 -451 -393 -599
-525 -143 -127 -310 -273 -575 -504 -71 -62 -175 -154 -231 -204 -55 -50 -122
-107 -148 -129 l-49 -38 -1529 0 -1529 0 0 2394 0 2393 78 74 c42 41 160 148
262 239 101 91 238 215 305 275 66 61 185 168 265 240 80 71 201 182 270 245
69 63 244 223 390 355 145 132 336 305 424 385 87 80 182 165 210 189 28 25
83 75 122 113 l72 68 1499 0 1500 0 5 -157z"/>
<path d="M4791 5975 c-150 -34 -230 -70 -342 -156 -116 -88 -210 -226 -256
-374 -14 -48 -18 -93 -18 -220 0 -143 2 -167 24 -225 37 -102 79 -175 146
-253 227 -266 644 -345 971 -183 101 50 190 123 210 173 9 20 14 71 14 133 l0
100 -97 0 c-54 0 -114 3 -133 6 -32 5 -37 2 -54 -27 -29 -50 -84 -98 -146
-127 -48 -23 -68 -27 -150 -27 -83 0 -103 3 -157 29 -70 32 -157 116 -193 185
-72 142 -58 356 31 487 78 114 188 174 319 174 127 0 247 -59 280 -140 l12
-30 139 0 c76 0 139 3 141 8 2 4 1 67 -2 141 l-5 134 -49 43 c-62 54 -172 108
-274 135 -103 27 -321 35 -411 14z"/>
<path d="M13934 5975 c-96 -17 -135 -30 -230 -77 -154 -75 -255 -179 -334
-343 -98 -201 -95 -468 7 -673 67 -135 224 -277 378 -341 165 -68 410 -79 571
-25 93 31 197 89 258 145 l61 56 0 124 0 124 -127 3 -127 3 -15 -28 c-23 -45
-76 -90 -141 -120 -52 -24 -71 -28 -150 -27 -97 1 -134 12 -217 65 -132 85
-208 308 -164 479 38 147 95 226 208 285 64 34 84 39 156 43 131 7 238 -40
292 -127 l25 -41 130 3 130 2 -3 130 c-2 72 -6 138 -9 148 -8 30 -118 104
-202 136 -173 67 -338 85 -497 56z"/>
<path d="M15459 5980 c-238 -38 -447 -188 -548 -393 -63 -129 -85 -220 -84
-362 1 -305 142 -535 410 -669 193 -97 510 -100 709 -7 93 43 201 118 223 155
23 37 66 185 56 194 -4 4 -65 9 -135 10 l-129 4 -75 -46 c-105 -63 -166 -79
-285 -74 -112 5 -190 34 -254 96 -43 41 -93 131 -98 177 l-4 30 532 3 532 2 7
35 c11 61 -13 266 -41 351 -81 241 -252 408 -487 474 -84 24 -245 33 -329 20z
m252 -348 c88 -39 144 -107 162 -199 l7 -33 -310 0 c-171 0 -310 4 -310 9 0
26 54 124 85 155 91 92 247 121 366 68z"/>
<path d="M6146 5971 c-5 -8 -100 -285 -412 -1204 -46 -137 -82 -253 -79 -258
4 -5 89 -9 191 -9 164 0 185 2 195 18 6 9 29 76 53 147 l42 130 281 3 281 2
48 -147 49 -148 189 -3 188 -2 -5 37 c-3 21 -41 144 -85 273 -100 296 -368
1071 -389 1128 l-16 42 -263 0 c-144 0 -265 -4 -268 -9z m334 -473 c28 -90 68
-216 90 -281 27 -83 35 -120 26 -123 -6 -2 -93 -3 -192 -2 l-180 3 78 240 c91
282 107 325 118 325 4 0 31 -73 60 -162z"/>
<path d="M7385 5968 c-3 -7 -4 -339 -3 -738 l3 -725 399 -3 c313 -2 401 1 408
10 4 7 8 73 8 146 l0 132 -192 1 c-106 1 -206 2 -223 3 l-30 1 -3 593 -2 592
-180 0 c-135 0 -182 -3 -185 -12z"/>
<path d="M8432 5243 l3 -738 330 -3 c182 -2 363 0 403 3 l72 7 0 139 0 139
-197 1 c-109 1 -208 4 -221 7 l-22 7 -4 280 c-2 154 -4 418 -5 586 l-1 307
-180 1 -180 2 2 -738z"/>
<path d="M12260 5974 c-158 -30 -388 -116 -396 -148 -2 -12 -3 -76 -2 -144 l3
-123 138 -1 137 -2 33 32 c41 40 103 61 197 69 157 12 258 -53 268 -172 l4
-55 -138 0 c-271 0 -474 -56 -602 -166 -147 -125 -187 -379 -87 -550 80 -136
198 -208 383 -234 146 -20 281 10 415 90 36 22 68 40 71 40 3 0 8 -21 12 -47
4 -27 12 -51 18 -55 6 -4 82 -8 168 -8 142 0 157 2 162 18 9 29 5 816 -5 935
-11 127 -47 233 -107 312 -57 75 -160 148 -256 181 -73 25 -96 28 -236 30 -85
1 -166 0 -180 -2z m396 -876 c-3 -18 -8 -55 -12 -83 -8 -69 -26 -107 -73 -158
-47 -51 -120 -86 -195 -94 -76 -8 -130 11 -182 62 -40 41 -44 49 -44 95 0 144
120 205 413 209 l98 1 -5 -32z"/>
<path d="M9218 5960 c-22 -6 -23 -10 -26 -120 -4 -175 -21 -160 173 -160 l165
0 2 -587 3 -588 75 -3 c41 -2 121 0 177 3 l103 7 2 581 3 582 170 2 170 2 3
43 c2 24 1 88 -3 143 l-7 100 -493 0 c-272 0 -504 -2 -517 -5z"/>
<path d="M10477 5918 c-10 -82 -2 -1397 9 -1408 7 -7 74 -9 185 -8 l174 3 3
263 2 262 94 0 c63 0 97 -4 103 -12 12 -15 101 -213 175 -388 l53 -125 178 -3
c147 -2 177 0 177 12 0 17 -58 142 -192 414 -54 112 -98 205 -96 206 2 2 24
17 49 34 60 40 112 99 146 164 24 46 28 67 31 165 5 136 -16 212 -84 302 -49
65 -93 99 -174 133 -54 22 -64 23 -441 26 l-387 3 -5 -43z m653 -301 c59 -30
83 -73 83 -146 -1 -67 -22 -124 -55 -144 -37 -24 -132 -39 -223 -35 l-85 3 0
171 c0 94 3 174 8 178 4 5 57 5 117 2 85 -5 120 -12 155 -29z"/>
<path d="M16795 5932 c-121 -1 -223 -6 -228 -11 -9 -9 -10 -1417 -1 -1432 3
-5 81 -9 173 -9 128 0 171 3 180 13 7 9 12 98 13 258 l3 244 75 3 c41 2 84 1
96 -2 16 -4 40 -51 107 -203 48 -109 99 -223 115 -253 l27 -55 168 -3 c144 -2
168 0 173 13 8 20 -50 153 -177 407 -55 109 -99 200 -99 202 0 2 18 15 40 30
115 76 181 189 188 321 11 201 -77 360 -240 436 -71 33 -77 34 -233 39 -88 3
-259 4 -380 2z m410 -348 c58 -29 88 -91 80 -163 -13 -118 -55 -145 -230 -146
l-120 0 -3 155 c-1 85 0 160 3 168 9 23 219 13 270 -14z"/>
</g>
</svg>
